<?xml version="1.0" encoding="utf-8"?>
<!-- Generator: Adobe Illustrator 13.0.0, SVG Export Plug-In . SVG Version: 6.00 Build 14948)  -->
<!DOCTYPE svg PUBLIC "-//W3C//DTD SVG 1.0//EN" "http://www.w3.org/TR/2001/REC-SVG-20010904/DTD/svg10.dtd">
<svg version="1.0" id="Ebene_1" xmlns="http://www.w3.org/2000/svg" xmlns:xlink="http://www.w3.org/1999/xlink" x="0px" y="0px"
	 width="175.748px" height="158.963px" viewBox="0 0 175.748 158.963" enable-background="new 0 0 175.748 158.963"
	 xml:space="preserve">
<polygon fill-rule="evenodd" clip-rule="evenodd" fill="#FBC82B" points="48.168,8.504 48.168,64.109 0,91.584 8.462,106.629 
	65.743,73.922 65.743,8.504 48.168,8.504 "/>
<polygon fill-rule="evenodd" clip-rule="evenodd" fill="#FBC82B" points="110.005,8.504 127.58,8.504 127.58,64.109 175.748,91.584 
	167.286,106.629 110.005,73.922 110.005,8.504 "/>
<polygon fill-rule="evenodd" clip-rule="evenodd" fill="#FBC82B" points="87.874,109.247 30.593,142.61 39.706,158.963 
	87.874,130.834 136.042,158.963 145.154,142.61 87.874,109.247 "/>
<polygon fill-rule="evenodd" clip-rule="evenodd" fill="#FBC82B" points="87.874,0 78.761,8.504 78.761,81.118 13.019,117.75 
	11.065,129.526 22.131,132.797 87.874,96.163 153.617,132.797 164.683,128.872 162.729,117.75 96.986,81.118 96.986,8.504 87.874,0 
	"/>
</svg>
